<svg aria-hidden="true" style="position: absolute; width: 0; height: 0; overflow: hidden;" version="1.1" xmlns="http://www.w3.org/2000/svg" xmlns:xlink="http://www.w3.org/1999/xlink">
<defs>
<symbol id="icon1" viewBox="0 0 36 32">
<path fill="#d9efde" style="fill: var(--color1, #d9efde)" d="M35.946 4.974c-0.929 1.239-2.052 2.32-3.325 3.201 0 0.324 0 0.647 0 0.989 0.010 5.878-2.338 11.514-6.517 15.644s-9.841 6.411-15.716 6.329c-3.396 0.011-6.749-0.764-9.795-2.266-0.164-0.072-0.27-0.234-0.27-0.414v-0.198c0-0.258 0.209-0.467 0.467-0.467 3.338-0.11 6.558-1.268 9.202-3.309-3.022-0.061-5.74-1.851-6.991-4.603-0.063-0.15-0.044-0.323 0.052-0.455s0.253-0.205 0.415-0.192c0.918 0.092 1.846 0.007 2.732-0.252-3.336-0.692-5.842-3.462-6.201-6.851-0.013-0.163 0.060-0.32 0.192-0.416s0.304-0.115 0.455-0.052c0.895 0.395 1.861 0.603 2.84 0.611-2.923-1.918-4.185-5.567-3.073-8.883 0.115-0.322 0.391-0.56 0.726-0.627s0.681 0.049 0.91 0.303c3.944 4.198 9.363 6.699 15.115 6.977-0.147-0.588-0.22-1.192-0.216-1.798 0.054-3.178 2.020-6.009 4.979-7.168s6.323-0.416 8.519 1.881c1.497-0.285 2.944-0.788 4.295-1.492 0.099-0.062 0.225-0.062 0.324 0 0.062 0.099 0.062 0.225 0 0.324-0.655 1.499-1.76 2.756-3.163 3.596 1.228-0.142 2.435-0.432 3.595-0.863 0.098-0.066 0.226-0.066 0.323 0 0.082 0.037 0.143 0.109 0.167 0.196s0.009 0.18-0.041 0.254z"></path>
</symbol>
<symbol id="icon2" viewBox="0 0 17 32">
<path fill="#d9efde" style="fill: var(--color1, #d9efde)" d="M16 6.349h-5.053c-0.93 0-1.684 0.754-1.684 1.684v5.053h6.737c0.192-0.004 0.373 0.085 0.487 0.239s0.146 0.354 0.086 0.536l-1.246 3.705c-0.115 0.34-0.433 0.57-0.792 0.573h-5.272v12.632c0 0.465-0.377 0.842-0.842 0.842h-4.211c-0.465 0-0.842-0.377-0.842-0.842v-12.632h-2.526c-0.465 0-0.842-0.377-0.842-0.842v-3.368c0-0.465 0.377-0.842 0.842-0.842h2.526v-5.053c0-3.721 3.016-6.737 6.737-6.737h5.895c0.465 0 0.842 0.377 0.842 0.842v3.368c0 0.465-0.377 0.842-0.842 0.842z"></path>
</symbol>
<symbol id="icon3" viewBox="0 0 30 32">
<path fill="#d9efde" style="fill: var(--color1, #d9efde)" d="M21.895 0.842h-13.474c-4.651 0-8.421 3.77-8.421 8.421v13.474c0 4.651 3.77 8.421 8.421 8.421h13.474c4.651 0 8.421-3.77 8.421-8.421v-13.474c0-4.651-3.77-8.421-8.421-8.421zM27.368 22.737c-0.009 3.019-2.455 5.464-5.474 5.474h-13.474c-3.019-0.009-5.464-2.455-5.474-5.474v-13.474c0.009-3.019 2.454-5.464 5.474-5.474h13.474c3.019 0.009 5.464 2.454 5.474 5.474v13.474zM23.158 9.684c0.93 0 1.684-0.754 1.684-1.684s-0.754-1.684-1.684-1.684c-0.93 0-1.684 0.754-1.684 1.684s0.754 1.684 1.684 1.684zM15.158 8.421c-4.186 0-7.579 3.393-7.579 7.579s3.393 7.579 7.579 7.579c4.186 0 7.579-3.393 7.579-7.579 0.005-2.011-0.793-3.942-2.215-5.364s-3.353-2.219-5.364-2.215zM10.526 16c0 2.558 2.074 4.632 4.632 4.632s4.632-2.074 4.632-4.632c0-2.558-2.074-4.632-4.632-4.632s-4.632 2.074-4.632 4.632z"></path>
</symbol>
<symbol id="icon4" viewBox="0 0 30 32">
<path fill="#d9efde" style="fill: var(--color1, #d9efde)" d="M3.368 1.296h23.579c1.86 0 3.368 1.508 3.368 3.368v23.579c0 1.86-1.508 3.368-3.368 3.368h-23.579c-1.86 0-3.368-1.508-3.368-3.368v-23.579c0-1.86 1.508-3.368 3.368-3.368zM8.421 26.559c0.465 0 0.842-0.377 0.842-0.842v-11.789c0-0.465-0.377-0.842-0.842-0.842h-2.526c-0.465 0-0.842 0.377-0.842 0.842v11.789c0 0.465 0.377 0.842 0.842 0.842h2.526zM7.158 11.401c-1.395 0-2.526-1.131-2.526-2.526s1.131-2.526 2.526-2.526c1.395 0 2.526 1.131 2.526 2.526s-1.131 2.526-2.526 2.526zM24.421 26.559c0.465 0 0.842-0.377 0.842-0.842v-7.747c0.055-2.677-1.924-4.961-4.581-5.288-1.858-0.17-3.658 0.698-4.682 2.257v-1.011c0-0.465-0.377-0.842-0.842-0.842h-2.526c-0.465 0-0.842 0.377-0.842 0.842v11.789c0 0.465 0.377 0.842 0.842 0.842h2.526c0.465 0 0.842-0.377 0.842-0.842v-6.316c0-1.395 1.131-2.526 2.526-2.526s2.526 1.131 2.526 2.526v6.316c0 0.465 0.377 0.842 0.842 0.842h2.526z"></path>
</symbol>
<symbol id="icon-main-logo" viewBox="0 0 39 32">
<path d="M26.768 2.401c-0.591-1.43-2.636-1.373-3.147 0.088l-4.17 11.939c-0.482 1.379-2.371 1.533-3.069 0.25l-3.982-7.32c-0.687-1.263-2.539-1.14-3.053 0.203l-8.473 22.152c-0.422 1.103 0.392 2.286 1.573 2.286h34.037c1.2 0 2.015-1.219 1.556-2.328l-11.273-27.271z"></path>
</symbol>
<symbol id="icon-dell" viewBox="0 0 96 32">
<path fill="#fff" style="fill: var(--color2, #fff)" opacity="0.8" d="M41.093 1.459l-15.819 11.869c-0.743-2.919-2.462-5.514-4.884-7.376s-5.41-2.884-8.494-2.906h-11.353v27.283h11.353c3.1 0.041 6.12-0.958 8.555-2.83s4.138-4.502 4.822-7.452l15.819 11.869 15.819-11.869v10.282h17.843v-5.538h-11.769v-21.764h-6.49v10.282l-15.005 11.869-3.236-2.769 7.304-5.538 7.701-5.925-4.465-3.563-15.005 11.463-3.236-2.769 15.005-11.076-4.466-3.563v0.018zM6.618 8.566h4.863c1.006 0.002 2 0.216 2.914 0.628 0.928 0.416 1.764 1.006 2.46 1.735 0.733 0.768 1.31 1.663 1.703 2.64 0.807 2.075 0.807 4.367 0 6.442-0.367 0.973-0.912 1.874-1.608 2.658-0.677 0.771-1.507 1.399-2.441 1.846-0.962 0.453-2.016 0.686-3.084 0.683h-4.806v-16.632zM95.001 24.791v5.538h-17.824v-27.301h6.49v21.764h11.334z"></path>
</symbol>
<symbol id="icon-lattice" viewBox="0 0 161 32">
<path fill="#ceccd3" style="fill: var(--color3, #ceccd3)" d="M14.279 21.656l4.454 4.551-3.716 3.958c-1.205 1.283-3.159 1.283-4.364 0l-9.273-9.877c-1.205-1.284-1.205-3.365 0-4.648s3.159-1.283 4.364 0l7.091 7.553 1.444-1.537zM15.437 20.422l3.945-4.202 4.364 4.648-3.633 3.869-4.676-4.315z"></path>
<path fill="#ceccd3" style="fill: var(--color3, #ceccd3)" d="M33.288 24.651l-4.65-4.344 10.926-11.637c1.205-1.283 3.159-1.283 4.364 0s1.205 3.364 0 4.648l-10.641 11.333zM31.842 26.191l-3.731 3.974c-1.205 1.283-3.159 1.283-4.364 0l-15.82-16.849c-1.205-1.284-1.205-3.365 0-4.648s3.159-1.284 4.364 0l13.638 14.525 1.534-1.634 4.38 4.631z"></path>
<path fill="#ceccd3" style="fill: var(--color3, #ceccd3)" d="M26.583 19.241l4.343-4.669 8.095 8.621 7.090-7.551c1.205-1.283 3.159-1.283 4.364 0s1.205 3.365 0 4.648l-9.272 9.875c-1.205 1.283-3.159 1.283-4.364 0l-10.256-10.924zM24.784 17.325l-10.311-10.982c-1.205-1.283-1.205-3.364 0-4.647s3.159-1.284 4.364 0l10.321 10.993-4.375 4.636z"></path>
<path fill="#ceccd3" style="fill: var(--color3, #ceccd3)" d="M37.382 1.697c-1.205-1.283-3.159-1.283-4.364 0l-13.636 14.523 4.364 4.648 13.636-14.523c1.205-1.284 1.205-3.365 0-4.648z"></path>
<path fill="#fff" style="fill: var(--color2, #fff)" opacity="0.8" d="M67.353 3.967h-3.795v23.741h13.904v-3.585h-10.109v-20.155zM85.675 11.105c2.307 0 3.855 1.001 4.705 2.229l0.182-1.906h3.279v16.279h-3.279l-0.182-1.906c-0.85 1.227-2.398 2.229-4.705 2.229-4.159 0-6.982-3.585-6.982-8.463 0-4.91 2.823-8.463 6.982-8.463zM86.464 14.529c-2.368 0-4.068 1.97-4.068 5.039s1.7 5.039 4.068 5.039c1.821 0 2.914-1.034 3.734-2.423v-5.233c-0.82-1.389-1.913-2.423-3.734-2.423zM103.025 5.97h-3.643v5.459h-2.884v3.295h2.884v7.235c0 3.941 2.216 6.072 5.707 6.072 1.518 0 2.641-0.452 3.4-0.969l-0.971-3.036c-0.455 0.291-1.123 0.517-2.095 0.517-1.427 0-2.398-0.969-2.398-2.616v-7.203h4.614v-3.295h-4.614v-5.459zM115.578 5.97h-3.643v5.459h-2.884v3.295h2.884v7.235c0 3.941 2.216 6.072 5.707 6.072 1.518 0 2.641-0.452 3.4-0.969l-0.971-3.036c-0.455 0.291-1.123 0.517-2.095 0.517-1.427 0-2.398-0.969-2.398-2.616v-7.203h4.614v-3.295h-4.614v-5.459zM127.13 11.428h-3.643v16.279h3.643v-16.279zM125.308 3.838c-1.275 0-2.246 1.001-2.246 2.39s0.971 2.39 2.246 2.39c1.305 0 2.277-1.001 2.277-2.39s-0.971-2.39-2.277-2.39zM138.135 11.105c-4.705 0-7.832 3.553-7.832 8.463 0 4.877 3.157 8.463 7.862 8.463 2.763 0 4.857-1.324 6.224-3.585l-2.611-2.164c-0.729 1.292-1.913 2.358-3.583 2.358-2.701 0-4.189-2.229-4.189-5.071 0-2.875 1.427-5.071 4.159-5.071 1.7 0 2.824 1.034 3.521 2.326l2.641-2.132c-1.365-2.261-3.4-3.585-6.193-3.585zM153.3 11.105c4.705 0 7.012 3.747 7.012 8.301v1.357h-10.807c0.091 2.584 1.548 4.005 4.097 4.005 1.792 0 3.097-0.84 3.795-1.873l2.52 2.196c-1.517 1.938-3.521 2.939-6.344 2.939-4.736 0-7.772-3.553-7.772-8.43 0-4.91 3.096-8.495 7.499-8.495zM153.239 14.206c-2.155 0-3.612 1.518-3.733 3.779h7.224c-0.091-2.229-1.305-3.779-3.491-3.779z"></path>
</symbol>
<symbol id="icon-ncr" viewBox="0 0 100 32">
<path fill="#fff" style="fill: var(--color2, #fff)" opacity="0.8" d="M60.405 17.787c0 0-0.197-0.766-0.197-1.333v-8.88h3.365v17.103l-10.775-9.428c-0.577-0.518-0.918-1.096-0.918-1.096s0.171 0.637 0.171 1.189l-0.003 8.949h-3.367v-17.036l10.676 9.239c0.573 0.512 1.048 1.293 1.048 1.293z"></path>
<path fill="#fff" style="fill: var(--color2, #fff)" opacity="0.8" d="M90.878 7.576c5.333 0 6.699 2.222 6.699 5.417 0 2.315-1.613 4.583-4.867 4.852l-0.356 0.018c0 0 0.315 0.059 0.643 0.393l5.905 6.036h-4.563l-8.243-8.844h4.104c3.677 0 3.783-2.047 3.808-2.563 0.069-1.329-0.333-2.391-3.137-2.391h-4.693v13.798h-3.497v-16.715h8.197z"></path>
<path fill="#fff" style="fill: var(--color2, #fff)" opacity="0.8" d="M65.087 16.172c0-7.003 5.547-8.843 10.209-8.843 1.867 0 3.52 0.177 5.26 0.567l0.005 3.551c-1-0.325-3.009-1.039-5.264-1.039-4.42 0-6.567 1.815-6.567 5.764 0 3.235 2.314 5.295 6.567 5.295 2.255 0 4.513-0.567 5.606-0.993l-0.006 3.445c-1.738 0.388-3.733 0.627-5.6 0.627-4.98 0-10.21-2.557-10.21-8.374z"></path>
<path fill="#fff" style="fill: var(--color2, #fff)" opacity="0.8" d="M27.215 8.006l3.282 3.267c-0.090 0.042-0.193 0.094-0.315 0.159-0.19 0.105-0.416 0.245-0.688 0.443-0.541 0.393-1.246 1.020-2.148 2.049l-6.415 7.173c-1.099 1.228-2.216 2.201-3.255 2.715l-3.284-3.268c0.090-0.044 0.193-0.093 0.313-0.161 0.19-0.102 0.416-0.244 0.688-0.44 0.54-0.396 1.247-1.020 2.149-2.050l6.413-7.161c1.1-1.226 2.219-2.211 3.259-2.725z"></path>
<path fill="#fff" style="fill: var(--color2, #fff)" opacity="0.8" d="M14.509 25.346c1.451 0 2.785-0.304 3.689-0.8 0.414-0.228 1.004-0.62 1.511-1.038 0.506-0.417 1.222-1.066 1.828-1.747l6.421-7.153c1.62-1.803 2.593-2.359 3.184-2.578l3.294 3.297c-0.687 0.777-8.885 10.002-8.885 10.002-0.559 0.638-1.148 1.253-1.548 1.641-0.384 0.375-1.042 0.933-1.382 1.195-1.928 1.493-4.503 2.703-7.971 2.703-7.858 0-14.212-6.758-14.212-14.54 0-9.654 7.138-15.256 13.639-15.256 1.993-0.062 3.592 0.292 4.856 0.745 1.168 0.42 2.050 0.928 2.69 1.273-0.757 0.512-1.489 1.211-2.695 2.573l-1.318 1.496c-0.303-0.123-1.648-0.619-3.375-0.563-4.171 0.13-8.734 3.703-8.569 9.564 0.153 5.481 4.428 9.186 8.842 9.186z"></path>
<path fill="#fff" style="fill: var(--color2, #fff)" opacity="0.8" d="M26.65 7.319c-0.415 0.229-1.004 0.621-1.514 1.039-0.504 0.417-1.22 1.066-1.828 1.745l-6.42 7.155c-1.62 1.803-2.593 2.357-3.184 2.577l-3.294-3.294c0.689-0.779 8.885-10.003 8.885-10.003 0.56-0.638 1.148-1.253 1.548-1.642 0.384-0.375 1.042-0.931 1.385-1.195 1.924-1.493 4.503-2.703 7.971-2.703 7.857 0 14.209 6.759 14.209 14.539 0 9.657-7.136 15.256-13.639 15.256-1.991 0.064-3.592-0.29-4.854-0.748-1.171-0.418-2.057-0.929-2.695-1.273 0.799-0.57 1.484-1.195 2.7-2.568l1.316-1.496c0.303 0.121 1.649 0.617 3.377 0.563 4.17-0.132 8.734-3.708 8.569-9.568-0.155-5.478-4.433-9.185-8.844-9.185-1.453 0-2.781 0.305-3.687 0.801z"></path>
</symbol>
<symbol id="icon-pacific-funds" viewBox="0 0 329 32">
<path fill="#fff" style="fill: var(--color2, #fff)" opacity="0.8" d="M63.899 28.899c0-0.221 0-0.552 0-0.773-0.125 0-8.222 0.441-12.209 0.441-5.232 0-12.706-0.11-12.706-0.11l-34.383-0.221c0-0.11 0-0.552 0-0.662l34.508-0.11c0 0 7.474 0.11 12.706 0.11 3.986 0 11.96 0 12.084 0 0-0.331-0.125-0.883-0.125-1.325-0.125 0-8.098 0.552-11.96 0.552-5.232 0-12.706-0.331-12.706-0.331h-8.845l-11.71-0.331h-13.828c0-0.11 0.125-0.552 0.125-0.662 0.498 0.11 0.872 0.221 2.616 0.221 2.242 0 3.239-0.442 3.239-0.442s1.62 0.442 3.737 0.442c0.997 0 3.239-0.883 4.609-0.552 2.242 0.552 3.114-0.331 3.114-0.331s0.498 0.552 1.495 0.773c0.747 0.11 1.744-0.331 1.744-0.331s1.246 0.773 4.858 0.773c4.36 0 5.606-2.097 5.606-2.097h0.125c0 0-0.125 0.552 0.125 0.993 0.498 0.883 1.869 0.993 1.869 0.993-0.125-2.428 0.997-4.084 0.997-4.084h0.125l-0.249 0.662c-0.498 1.766 0.374 3.311 0.374 3.311l0.373-0.221c0 0-0.373-1.104 0-2.649s0.997-2.318 0.997-2.318h0.249c0 0-0.374 1.214-0.374 2.097 0 0.773 0.498 2.649 2.118 3.201 1.246 0.442 2.242-0.552 2.242-0.552s2.741 0.662 4.983 0.662c5.357 0 6.602-0.773 6.602-0.773s0.374 0.552 3.114 0.552c1.619 0 2.865-0.11 3.613-0.221 0.249 0 0.374 0 0.498-0.11 0-0.442-0.125-0.773-0.249-1.214-1.495-7.395-6.353-13.797-13.080-17.88l-0.374 0.993c6.602 3.863 11.461 9.934 12.831 17.108-0.747 0.221-1.869 0.552-3.239 0.552-2.118 0-2.616-0.552-2.616-0.552s-0.748 0.442-2.118 0.442c-1.246 0-2.118-0.773-2.118-0.773s-1.246 1.104-3.488 1.104c-2.616 0-3.986-1.435-4.485-2.097s-0.747-1.214-0.747-1.214h-0.125c0 0.221 0.125 0.552 0.249 0.883 0.374 0.883 0.623 1.104 0.747 1.324 0.125 0.11 0.249 0.442-0.125 0.552-0.249 0.11-0.374-0.11-0.498-0.221-0.125-0.221-0.623-0.773-0.872-1.656-0.374-0.993-0.374-1.656-0.498-2.208h-0.249c-0.125 0.442-0.125 1.214-0.125 2.097 0.125 0.993 0.374 1.656 0.498 1.876 0 0 0.125 0.11 0.125 0.221 0 0.331-0.249 0.441-0.498 0.441s-0.498-0.221-0.623-0.441c-1.121-1.656 0.249-4.967 0.623-5.96 0.623-1.435 0.747-2.87 0.747-2.87s0.747-1.104 1.121-1.876c0.498-0.993 0.872-1.876 1.246-2.207 0.498-0.441 1.37-1.545 2.242-2.98 0.125-0.221 0.872-1.766 0.997-2.097 0.125-0.221 0.249-0.552 0.374-0.773 0.374-1.324 0.747-2.87 0.747-3.090 0-0.331-0.623-0.552-0.623-0.552s-0.623-0.221-0.997-0.221c-0.249 0-0.498 0.221-0.747 0.331-0.374 0.11-0.498 0-0.498 0s-0.498-0.221-0.747-0.11c-0.249 0-0.498 0.331-0.747 0.331-0.374 0.11-0.498 0.11-0.498 0.11s-0.374-0.11-0.623-0.11c-0.249 0.11-0.498 0.221-0.997 0.552-3.488-1.104-7.101-1.656-10.838-1.656-17.067 0-31.019 12.141-31.269 27.262 0 0.11 0 0.773 0 0.773h62.413c0 0 0-0.662 0-0.773zM24.159 23.38c-0.125 0 0-0.11-0.125-0.11 0.872-2.428 2.865-7.395 6.104-11.148 0.374 0.11 0.623 0.331 0.997 0.441-2.367 2.318-5.481 6.843-6.976 10.816zM26.028 24.153c0.623-2.207 2.242-6.843 5.73-11.258 0.374 0.221 0.623 0.331 0.997 0.552-2.367 2.759-5.232 7.174-6.478 10.816-0.125 0-0.125-0.11-0.249-0.11zM28.519 24.705c-0.125 0 0 0-0.125 0 0.498-1.766 1.869-6.402 5.107-10.927 0.374 0.221 0.623 0.331 0.872 0.552-2.242 2.98-4.734 7.064-5.855 10.375zM30.886 24.705c-0.125 0-0.125 0-0.125 0 0.498-1.656 1.619-5.739 4.36-9.823 0.374 0.221 0.747 0.441 0.872 0.662-1.993 2.649-4.111 6.181-5.108 9.161zM39.108 17.31c-0.623 0-1.495-0.221-1.744-0.662 0.125 0.773 1.121 1.435 1.993 1.435-0.249 0-0.374 0.11-0.623 0.11-1.121 0-2.118-0.883-2.118-1.876 0-0.11 0-0.331 0-0.441 0.872 0.662 2.741 1.545 3.862 0.221v0.11c-0.125 0.552-0.747 1.104-1.37 1.104zM42.596 13.005c0 0.331-0.249 0.442-0.498 0.552-0.125 0.11-0.498 0.221-0.498 0.331h-0.125c0 0-0.125-0.11-0.249-0.11 0-0.11 0-0.11 0-0.11v-0.331c0 0-0.125-0.221 0-0.441 0-0.331 0.374-0.552 0.374-0.552h0.125c0 0-0.125 0.221-0.249 0.441 0 0.11-0.125 0.441 0 0.662v0.221l0.125 0.11 0.125-0.11c0.249-0.11 0.249-0.221 0.249-0.221s-0.249-0.221-0.125-0.442c0.125-0.221 0.498-0.221 0.498-0.221 0.125-0.331 0-0.552 0-0.552l0.249 0.11c-0.125-0.11 0 0.221 0 0.662zM44.216 3.623c0.374-0.11 0.498-0.331 0.872-0.442s0.623 0 0.872 0 0.623-0.331 0.872-0.331c0.249 0 0.374 0.11 0.623 0.11 0.125 0.221 0.872-0.221 0.997-0.221s0.623 0 0.498 0.442c-0.125 0.331-0.374 1.324-0.872 2.649-0.125 0.331-0.374 0.773-0.623 1.214s-0.498 0.993-0.872 1.435c-1.37 1.987-2.741 1.545-5.357 2.649-2.118 0.883-2.99 1.435-3.239 1.766-0.249-0.221-0.374-0.221-0.623-0.331 0.374-0.331 1.246-0.883 2.99-1.656 1.869-0.883 4.983-1.987 5.606-2.98 0-0.11 0-0.11 0-0.221-0.748 0.442-1.37 0.662-1.62 0.883-2.99 1.324-4.111 1.656-5.481 2.318-0.623 0.331-1.62 0.773-2.242 1.214-0.125-0.11-0.374-0.221-0.498-0.331 0.623-0.441 1.495-0.883 2.367-1.324 1.37-0.552 2.492-1.104 5.73-2.759 0.249-0.11 1.869-0.993 3.114-1.876 0-0.11 0-0.221 0.125-0.331-1.121 0.552-4.734 2.318-5.481 2.649-2.99 1.324-2.865 1.214-4.236 1.876-0.872 0.441-1.744 0.883-2.367 1.324-0.125-0.11-0.374-0.221-0.498-0.331 0.747-0.441 1.37-0.883 2.367-1.324 1.37-0.662 1.495-0.773 4.609-2.097 1.495-0.662 4.236-2.318 5.73-3.090 0-0.11 0-0.11 0-0.221-1.495 0.773-5.855 2.759-6.478 3.090-2.99 1.214-3.364 1.324-4.734 1.987-0.747 0.331-1.495 0.773-2.118 1.104-0.125-0.11-0.249-0.221-0.374-0.331 0.498-0.331 1.37-0.883 2.492-1.435 1.37-0.662 1.619-0.773 4.609-2.097 0.374-0.11 1.869-0.883 3.239-1.656 0.374-0.221 0.872-0.441 1.246-0.662s0.623-0.442 0.872-0.552l-0.125-0.11c-0.623 0.221-1.495 0.662-1.744 0.773-1.619 0.773-3.613 1.656-4.236 1.876-2.99 1.324-3.363 1.435-4.734 2.097-0.747 0.331-1.62 0.773-2.118 1.214-0.125-0.11-0.249-0.221-0.374-0.331 0.623-0.441 1.495-0.993 2.492-1.435 1.37-0.662 1.619-0.773 4.609-2.097 0.498-0.221 0.997-0.441 1.37-0.662 0.125 0 1.495-0.662 2.741-1.435zM34.001 2.961c2.865 0 5.73 0.331 8.346 1.104-0.498 0.331-1.246 0.662-2.242 1.104-3.488 1.545-3.862 1.656-5.357 2.318-0.997 0.441-1.744 0.883-2.367 1.324 0 0-0.623-0.773-0.997-0.993s-1.246-0.442-1.495-0.552c-0.498-0.221-0.623-0.441-1.37-0.662-0.623-0.221-1.121-0.11-1.495-0.11-0.374-0.11-0.747-0.221-1.37-0.221-0.374 0-0.872 0.221-1.246 0.221-0.498 0-0.872-0.11-1.246-0.11-0.374 0.11-0.872 0.441-1.37 0.441-0.374 0.11-0.872 0-1.121 0-0.249 0.11-0.872 0.552-1.246 0.662-0.249 0.11-0.997 0.11-0.872 0.662 0 0.441 1.121 0.552 1.121 0.552s4.858 0.552 9.592 2.759c-0.623 0.773-1.37 1.545-1.869 2.428-0.374-0.11-0.872-0.221-1.121-0.221-0.498 0-0.997 0.221-1.37 0.11-0.747 0-0.747-0.11-1.619 0-0.623 0.11-0.623 0.221-1.121 0.331-0.374 0.11-0.747 0-1.37 0.11-0.249 0.11-0.747 0.552-1.121 0.662-0.249 0.11-0.747 0.11-1.121 0.331-0.249 0.221-0.249 0.441-0.872 0.662-0.374 0.221-0.623 0.11-0.997 0.442-0.249 0.442-0.249 0.773-0.872 1.214-0.747 0.552-0.747 0.993-0.623 1.104 0.249 0.442 1.37 0 1.37 0s3.986-1.214 8.72-1.435c-1.246 2.207-2.242 4.305-2.865 5.739-0.125 0.331-0.249 0.662-0.374 0.883-0.125 0-0.125 0-0.125 0-0.249-0.221-0.249-0.552-0.125-1.325s0.872-2.318 1.121-2.649h-0.249c-0.249 0.331-0.997 1.545-1.121 1.766-0.249 0.442-0.374 0.552-0.872 1.545-0.125 0.221-0.374 0.662-0.747 0.662-0.249 0-0.498-0.11-0.498-0.331 0-0.11 0.125-0.331 0.249-0.331 0.623-0.883 1.121-1.766 1.246-2.207h-0.249c0 0-1.744 3.532-5.481 3.532-1.246 0-2.616-0.552-2.616-0.552s-1.744 0.662-4.111 0.662c-1.869 0-2.99-0.331-3.488-0.442 2.616-11.92 14.202-21.192 29.026-21.192z"></path>
<path fill="#fff" style="fill: var(--color2, #fff)" opacity="0.8" d="M120.456 29.009l-0.249-0.11c-1.495-0.662-1.993-2.538-2.741-4.194l-7.599-17.88h-7.226v0.552l0.374 0.11c0 0 0.374 0.11 0.498 0.221 0.374 0.221 0.747 0.662 0.249 1.766 0 0.552-0.249 0.993-0.249 0.993l-5.98 14.238c-0.623 1.545-1.121 3.532-2.616 4.194l-0.498 0.221v0.552h8.097v-0.552l-0.623-0.221c-0.747-0.221-0.872-0.883-0.125-2.759l0.872-2.538h8.596c0.249 0.552 0.498 1.324 0.872 2.428s0.997 2.539 0.125 2.98l-0.498 0.221v0.552h8.72v-0.773zM109.992 19.848h-5.731l2.865-7.064 2.865 7.064z"></path>
<path fill="#fff" style="fill: var(--color2, #fff)" opacity="0.8" d="M173.029 6.824v0.552l0.623 0.221c0.997 0.331 0.872 2.428 0.872 3.753v13.797c0 1.104 0 3.422-0.872 3.753l-0.623 0.221v0.552h8.221v-0.552l-0.623-0.221c-0.997-0.331-0.872-2.649-0.872-3.753v-13.797c0-1.876 0.249-3.532 0.872-3.753l0.623-0.221v-0.552h-8.221z"></path>
<path fill="#fff" style="fill: var(--color2, #fff)" opacity="0.8" d="M142.131 6.824v0.552l0.623 0.221c0.997 0.331 0.872 2.428 0.872 3.753v13.797c0 1.104 0 3.422-0.872 3.753l-0.623 0.221v0.552h8.222v-0.552l-0.623-0.221c-0.997-0.331-0.872-2.649-0.872-3.753v-13.797c0-1.876 0.249-3.532 0.872-3.753l0.623-0.221v-0.552h-8.222z"></path>
<path fill="#fff" style="fill: var(--color2, #fff)" opacity="0.8" d="M95.916 4.838c-1.869-1.656-4.734-2.539-7.848-2.539h-10.589v0.552l0.498 0.11c1.37 0.552 1.246 3.532 1.246 5.739v15.011c0 1.656 0 4.636-1.246 5.077l-0.498 0.221v0.552h9.717v-0.552l-0.374-0.221c-1.744-0.993-1.744-3.201-1.744-5.519v-4.856l0.997 0.331c0 0 1.619 0.552 3.114 0.552 4.485 0 9.343-2.759 9.343-8.719 0-2.207-0.872-4.194-2.616-5.739zM86.448 17.199l-0.872 0.11h-0.498v-10.265c0.623-0.11 1.371-0.11 2.367-0.11 1.993 0 3.613 0.442 4.485 1.324 0.872 0.773 1.246 1.766 1.246 3.201 0 3.422-3.488 5.519-6.727 5.739z"></path>
<path fill="#fff" style="fill: var(--color2, #fff)" opacity="0.8" d="M228.341 2.299h-16.819v0.662l0.747 0.221c1.121 0.442 1.121 2.98 1.121 4.415v16.556c0 1.324 0 4.084-1.121 4.525l-0.747 0.221v0.662h9.344v-0.662l-0.747-0.221c-1.121-0.441-1.121-3.090-1.121-4.525v-5.408h5.481c0 0 2.367-0.221 2.741 0.662l0.125 0.331 0.623 0.11 0.374-7.285h-0.872l-0.125 0.441c-0.249 0.552-2.367 0.773-2.99 0.662h-5.481c0-2.428 0-5.408 0-6.733h6.727c1.619 0 2.492 0.331 2.741 1.104l0.123 0.441h0.747l1.744-6.512c0.249 0.221-1.993 0.331-2.614 0.331z"></path>
<path fill="#fff" style="fill: var(--color2, #fff)" opacity="0.8" d="M139.39 23.491l-0.125 0.11c-0.249 0.221-0.498 0.331-0.498 0.331-1.495 0.883-3.987 1.876-6.477 1.876-1.993 0-3.613-0.552-4.983-1.656-1.619-1.435-2.491-3.753-2.491-6.402 0-4.194 2.741-7.064 6.727-7.064 1.869 0 3.737 0.552 5.606 1.656l0.498 0.331 0.997 0.552v-5.96l-0.747-0.11c-2.492-0.552-4.484-0.883-6.228-0.883-3.488 0-6.478 1.104-8.72 3.090-2.367 2.097-3.737 5.298-3.737 8.83 0 3.642 1.246 6.623 3.613 8.719s5.855 3.201 9.841 3.201c1.993 0 3.861-0.331 5.356-1.104h0.125l0.249-0.11 0.125-0.221 1.744-5.298h-0.872v0.11z"></path>
<path fill="#fff" style="fill: var(--color2, #fff)" opacity="0.8" d="M203.050 23.491l-0.747 0.441c-1.495 0.883-3.987 1.876-6.478 1.876-1.993 0-3.613-0.552-4.983-1.656-1.619-1.435-2.491-3.753-2.491-6.402 0-4.194 2.741-7.064 6.727-7.064 1.869 0 3.737 0.552 5.606 1.656l1.495 0.883v-5.96l-0.623-0.11c-2.492-0.552-4.485-0.883-6.229-0.883-3.488 0-6.478 1.104-8.721 3.090-2.367 2.097-3.737 5.298-3.737 8.83 0 3.642 1.246 6.623 3.613 8.719s5.855 3.201 9.842 3.201c1.993 0 3.862-0.331 5.357-1.104l0.374-0.11 1.869-5.519h-0.872v0.11z"></path>
<path fill="#fff" style="fill: var(--color2, #fff)" opacity="0.8" d="M168.667 6.825h-15.073v0.552l0.623 0.221c0.997 0.331 0.872 2.428 0.872 3.753v13.796c0 1.104 0 3.422-0.872 3.753l-0.623 0.221v0.552h8.222v-0.552l-0.623-0.221c-0.997-0.331-0.872-2.649-0.872-3.753v-4.525h4.485c0 0 1.992-0.11 2.241 0.552l0.125 0.331 0.498 0.11 0.374-6.070h-0.623l-0.125 0.331c-0.125 0.441-1.992 0.662-2.49 0.552h-4.609c0-1.987 0-4.525 0-5.629h6.103c1.37 0 2.118 0.331 2.367 0.883l0.125 0.331h0.623l1.495-5.408c0.249 0-1.744 0.221-2.243 0.221z"></path>
<path fill="#fff" style="fill: var(--color2, #fff)" opacity="0.8" d="M274.306 6.825v0.552l0.498 0.221c1.122 0.662 1.246 1.656 1.246 3.532v10.485c-3.488-4.415-11.209-14.9-11.209-14.9h-5.979v0.552l0.498 0.221c1.12 0.662 1.246 1.766 1.246 3.642v13.686c0 1.876 0 3.311-1.246 3.973l-0.375 0.221v0.552h7.6v-0.552l-0.498-0.221c-1.122-0.221-1.122-2.097-1.122-3.973v-9.934l7.474 9.492c1.369 1.766 3.611 4.304 5.979 4.967 1.87 0.552 2.242 0.442 2.242 0.442v-18.543c0-1.876 0-2.98 1.246-3.642l0.498-0.221v-0.552h-8.098z"></path>
<path fill="#fff" style="fill: var(--color2, #fff)" opacity="0.8" d="M304.953 10.136c-2.491-2.207-6.229-3.422-10.837-3.422h-9.344v0.552l0.498 0.11 0.249 0.11c1.12 0.331 0.871 2.649 0.871 3.863v13.797c0 1.656 0 3.090-1.369 3.863l-0.375 0.221v0.441h9.221c8.469 0 14.45-4.746 14.45-11.589 0-3.201-1.122-5.96-3.365-7.947zM300.592 23.932c-1.744 1.435-4.11 2.318-7.099 2.318-0.622 0-0.997-0.11-1.744-0.221v-15.452c0.997-0.221 1.495-0.331 2.368-0.331 2.864 0 4.981 0.662 6.475 1.987s2.242 3.532 2.242 6.181c0 2.208-0.871 4.194-2.242 5.519z"></path>
<path fill="#fff" style="fill: var(--color2, #fff)" opacity="0.8" d="M254.249 25.477v-14.348c0-1.656 0-3.201 1.246-3.532l0.498-0.11-0.373-0.662h-8.471v0.552l0.498 0.11c1.246 0.441 1.12 2.207 1.12 3.422v10.927c0 1.104 0 1.656-0.622 2.428-0.997 1.214-2.866 1.987-4.859 1.987-1.618 0-2.741-0.331-3.611-1.104-1.122-0.883-1.621-2.539-1.621-4.636v-9.713c0-1.324 0-3.090 1.122-3.422l0.498-0.11v-0.442h-8.72v0.552l0.498 0.11c1.12 0.331 1.246 2.428 1.12 4.084v9.382c0 2.318 0 4.636 2.119 6.733 1.744 1.656 4.359 2.538 7.351 2.538 2.114 0 4.731-0.993 6.601-2.318v1.766h7.099v-0.552l-0.498-0.11c-0.997-0.441-1.12-1.876-0.997-3.532z"></path>
<path fill="#fff" style="fill: var(--color2, #fff)" opacity="0.8" d="M327.003 22.718c0 1.766-0.871 3.532-2.491 4.856-1.87 1.656-4.485 2.538-7.351 2.538-2.242 0-4.359-0.331-6.352-0.993h-0.126l-0.249-0.11v-0.331l-0.997-4.084-0.123-0.662-0.126-0.552h0.624l0.871 0.883c1.87 1.545 4.485 2.208 6.853 2.208 1.618 0 3.986-0.993 3.986-2.649 0-1.876-1.993-2.759-4.61-3.863-3.113-1.325-6.85-2.98-6.85-7.174 0-4.746 4.983-6.402 9.218-6.402 1.867 0 3.611 0.221 5.232 0.773h0.126l0.373 0.11v4.967l-0.871-0.552-0.873-0.441c-0.747-0.441-2.617-1.104-4.235-1.104-0.624 0-1.993 0.11-2.866 0.883-0.373 0.331-0.622 0.773-0.622 1.435 0 1.656 2.242 2.649 4.608 3.642 2.99 1.325 6.853 2.98 6.853 6.622z"></path>
</symbol>
<symbol id="icon-rakuten" viewBox="0 0 99 32">
<path fill="#fff" style="fill: var(--color2, #fff)" opacity="0.8" d="M24.707 31.193l54.187-4.947h-58.884l4.697 4.947z"></path>
<path fill="#fff" style="fill: var(--color2, #fff)" opacity="0.8" d="M91.457 5.842c-1.112 0.027-2.192 0.392-3.112 1.051v-0.68h-3.64v16.819h3.64v-9.831c-0.026-0.431 0.033-0.862 0.172-1.268s0.355-0.778 0.636-1.092c0.281-0.315 0.619-0.565 0.995-0.737s0.782-0.26 1.191-0.26 0.815 0.088 1.191 0.26c0.376 0.171 0.715 0.422 0.995 0.737s0.497 0.686 0.636 1.092 0.197 0.838 0.172 1.268v9.893h3.64v-9.893c0-4.081-2.642-7.358-6.516-7.358z"></path>
<path fill="#fff" style="fill: var(--color2, #fff)" opacity="0.8" d="M76.311 5.78c-4.227 0-7.221 3.895-7.221 8.842 0 5.194 3.757 8.842 7.573 8.842 1.937 0 4.344-0.68 6.399-3.772l-3.229-1.979c-2.466 3.834-6.634 1.917-7.104-1.979h10.45c0.939-5.936-2.759-9.955-6.869-9.955zM72.965 12.458c0.763-3.895 5.812-4.143 6.517 0h-6.517z"></path>
<path fill="#fff" style="fill: var(--color2, #fff)" opacity="0.8" d="M60.777 18.092c-0.032 0.771 0.083 1.54 0.339 2.263s0.648 1.384 1.152 1.944c0.504 0.56 1.11 1.007 1.782 1.315s1.395 0.47 2.128 0.477c1.238-0.046 2.446-0.406 3.522-1.051l-2.348-3.339c-0.361 0.271-0.79 0.422-1.233 0.433-0.242-0.007-0.48-0.067-0.699-0.175s-0.415-0.263-0.574-0.455c-0.16-0.192-0.28-0.416-0.354-0.658s-0.1-0.499-0.075-0.752v-7.235h3.111v-4.019h-3.111v-4.205h-3.64v4.205h-1.937v4.019h1.937v7.235z"></path>
<path fill="#fff" style="fill: var(--color2, #fff)" opacity="0.8" d="M51.419 23.464c1.112-0.027 2.192-0.392 3.112-1.051v0.618h3.64v-16.819h-3.64v9.893c0.026 0.431-0.033 0.862-0.172 1.268s-0.355 0.778-0.636 1.092c-0.281 0.315-0.619 0.565-0.995 0.737s-0.782 0.26-1.191 0.26-0.815-0.088-1.191-0.26c-0.376-0.172-0.715-0.422-0.995-0.737s-0.497-0.686-0.636-1.092c-0.139-0.406-0.197-0.838-0.172-1.268v-9.893h-3.64v9.893c0 4.081 2.642 7.358 6.517 7.358z"></path>
<path fill="#fff" style="fill: var(--color2, #fff)" opacity="0.8" d="M34.863 16.168l5.401 6.925h5.049l-7.221-8.966 6.223-7.915h-5.049l-4.403 5.874v-11.439h-3.699v22.445h3.699v-6.925z"></path>
<path fill="#fff" style="fill: var(--color2, #fff)" opacity="0.8" d="M25.47 22.289v0.742h3.64v-16.819h-3.64v0.742c-0.992-0.754-2.182-1.164-3.405-1.175-4.11 0-7.28 3.957-7.28 8.842s3.112 8.842 7.28 8.842c1.225-0.001 2.417-0.412 3.405-1.175zM18.484 14.684c0-2.659 1.468-4.761 3.522-4.761s3.464 2.102 3.464 4.761c0 2.659-1.409 4.761-3.464 4.761s-3.522-2.102-3.522-4.761z"></path>
<path fill="#fff" style="fill: var(--color2, #fff)" opacity="0.8" d="M13.611 9.243c-0.002-1.918-0.726-3.757-2.014-5.114s-3.034-2.119-4.855-2.121h-6.223v21.023h3.816v-6.492h2.642l4.638 6.492h4.755l-5.636-7.853c0.899-0.671 1.631-1.561 2.132-2.595s0.757-2.18 0.745-3.341zM6.801 12.582h-2.466v-6.554h2.466c0.825 0 1.617 0.345 2.2 0.96s0.911 1.448 0.911 2.317c0 0.869-0.328 1.703-0.911 2.317s-1.375 0.96-2.2 0.96z"></path>
</symbol>
<symbol id="icon-ted" viewBox="0 0 84 32">
<path fill="#fff" style="fill: var(--color2, #fff)" opacity="0.8" d="M8.887 9.22h-8.343v-7.78h25.929v7.78h-8.345v22.697h-9.242v-22.697zM27.909 1.44h25.212v7.78h-15.97v3.753h15.97v7.321h-15.97v3.844h15.97v7.779h-25.212v-30.476zM54.645 1.44h15.163c9.96 0 13.458 7.505 13.458 15.193 0 9.335-4.846 15.283-15.252 15.283h-13.368v-30.476zM63.887 24.137h3.587c5.742 0 6.551-4.758 6.551-7.595 0-1.923-0.628-7.23-7.269-7.23h-2.962l0.092 14.826z"></path>
</symbol>
<symbol id="icon-zendesk" viewBox="0 0 156 32">
<path fill="#fff" style="fill: var(--color2, #fff)" opacity="0.8" d="M103.49 26.895c2.050 0.045 4.034-0.742 5.516-2.188l2.737 3.007c-1.809 1.895-4.308 3.299-8.205 3.299-6.675 0-10.984-4.518-10.984-10.632-0.027-1.37 0.211-2.733 0.701-4.009s1.221-2.442 2.152-3.429c0.931-0.988 2.044-1.778 3.275-2.326s2.556-0.843 3.898-0.868h0.37c6.626 0 10.383 5.145 10.055 12.286h-15.683c0.559 2.964 2.597 4.853 6.166 4.853v0.007zM108.266 18.607c-0.419-2.765-2.039-4.803-5.286-4.803-1.364-0.081-2.707 0.37-3.757 1.262s-1.729 2.158-1.898 3.541h10.942z"></path>
<path fill="#fff" style="fill: var(--color2, #fff)" opacity="0.8" d="M0.635 26.674l12.059-12.499h-11.773v-3.927h17.359v4.005l-12.059 12.499h12.22v3.919h-17.806v-3.998z"></path>
<path fill="#fff" style="fill: var(--color2, #fff)" opacity="0.8" d="M31.98 26.895c2.050 0.045 4.034-0.742 5.516-2.188l2.737 3.007c-1.809 1.895-4.308 3.299-8.205 3.299-6.676 0-10.984-4.518-10.984-10.632-0.027-1.369 0.211-2.73 0.7-4.006s1.219-2.44 2.149-3.427c0.93-0.987 2.041-1.778 3.271-2.327s2.553-0.845 3.894-0.872h0.37c6.626 0 10.383 5.145 10.055 12.286h-15.669c0.559 2.964 2.598 4.853 6.166 4.853v0.007zM36.757 18.607c-0.419-2.765-2.039-4.803-5.286-4.803-1.364-0.081-2.707 0.37-3.757 1.262s-1.729 2.158-1.898 3.541h10.942z"></path>
<path fill="#fff" style="fill: var(--color2, #fff)" opacity="0.8" d="M67.508 20.403c0-6.535 4.783-10.618 10.048-10.618 1.263-0.017 2.515 0.249 3.667 0.778s2.177 1.31 3.002 2.286v-12.058h4.26v29.823h-4.26v-2.851c-0.81 1.017-1.833 1.836-2.995 2.395s-2.431 0.844-3.716 0.834c-1.325-0.010-2.635-0.287-3.855-0.814s-2.327-1.294-3.257-2.258c-0.93-0.963-1.665-2.104-2.162-3.358s-0.749-2.594-0.739-3.947c0-0.085 0-0.164 0-0.242l0.007 0.029zM84.462 20.332c-0.027-1.73-0.722-3.378-1.935-4.587s-2.844-1.879-4.539-1.866c-1.695 0.014-3.316 0.71-4.51 1.938s-1.864 2.888-1.864 4.618 0.67 3.389 1.864 4.618c1.194 1.228 2.815 1.925 4.51 1.938s3.327-0.657 4.539-1.866c1.213-1.209 1.908-2.857 1.935-4.587v-0.207z"></path>
<path fill="#fff" style="fill: var(--color2, #fff)" opacity="0.8" d="M115.766 26.282l3.854-2.045c0.511 0.927 1.261 1.694 2.167 2.219s1.937 0.787 2.979 0.759c2.409 0 3.659-1.261 3.659-2.694 0-1.632-2.332-2.003-4.888-2.53-3.415-0.713-6.983-1.881-6.983-6.086 0-3.228 3.010-6.207 7.758-6.171 3.736 0 6.508 1.511 8.079 3.962l-3.526 2.002c-0.495-0.747-1.168-1.353-1.956-1.761s-1.665-0.604-2.548-0.569c-2.29 0-3.456 1.147-3.456 2.451 0 1.468 1.85 1.881 4.741 2.53 3.296 0.713 7.032 1.839 7.032 6.086 0 2.851-2.409 6.62-8.121 6.578-4.19 0-7.115-1.718-8.798-4.739z"></path>
<path fill="#fff" style="fill: var(--color2, #fff)" opacity="0.8" d="M144.255 21.543l-3.38 3.756v5.316h-4.259v-29.823h4.259v19.526l9.043-10.133h5.188l-7.841 8.744 8.037 11.687h-4.818l-6.229-9.072z"></path>
<path fill="#fff" style="fill: var(--color2, #fff)" opacity="0.8" d="M54.632 9.778c-5.062 0-9.301 3.349-9.301 8.908v11.929h4.343v-11.402c0-3.349 1.885-5.352 5.104-5.352s4.825 2.002 4.825 5.352v11.402h4.322v-11.936c0-5.558-4.239-8.908-9.301-8.908z"></path>
</symbol>
</defs>
</svg>
